<svg xmlns="http://www.w3.org/2000/svg" viewBox="0 0 133.28 139.87"><defs><style>.cls-1{fill:none;stroke:#286bee;stroke-linecap:square;stroke-miterlimit:10;stroke-width:8px;}.cls-2{fill:#286bee;}</style></defs><g id="Calque_2" data-name="Calque 2"><g id="Calque_2-2" data-name="Calque 2"><path class="cls-1" d="M105.85,24.79c-3.73,1.61-8.2,3.36-13.57,5.21C67.21,38.64,64.93,55.27,64.77,59.62c-.16-4.34-2.44-21-27.52-29.62-5-1.72-9.21-3.35-12.78-4.88a50,50,0,0,1,81.38-.33Z"/><path class="cls-1" d="M115.28,54c0,.39,0,.77,0,1.16,0,.58,0,1.15-.07,1.72,0,.13,0,.25,0,.38-.05.68-.11,1.36-.18,2,0,.35-.07.69-.12,1s-.09.69-.14,1-.12.8-.19,1.2l-.09.48q-.12.69-.27,1.38c0,.26-.11.51-.17.77q-.13.61-.3,1.23c-.08.33-.17.66-.26,1s-.18.66-.28,1-.26.86-.4,1.29-.3.86-.45,1.28-.31.85-.48,1.27-.27.7-.42,1-.34.81-.53,1.22l-.21.45c-.22.47-.44.94-.67,1.4h0l-.36.73c-.3.57-.61,1.13-.92,1.68-.13.23-.26.45-.4.67s-.4.68-.61,1a.35.35,0,0,0,0,.08l-.39.6c-.33.51-.67,1-1,1.52s-.71,1-1.08,1.48c-.13.17-.26.35-.4.52-.28.36-.56.72-.86,1.08q-.15.19-.33.39c-.25.31-.51.61-.78.91a2.25,2.25,0,0,1-.21.24c-.14.17-.29.33-.45.5l-.1.1c-.23.26-.48.52-.73.78s-.5.51-.75.77a.34.34,0,0,0-.06.06l-1.27,1.21-.08.08c-.15.14-.3.28-.46.41-.38.35-.78.7-1.18,1l-.26.22c-.5.41-1,.82-1.53,1.22l-.09.07c-.36.28-.73.55-1.1.81l-.49.35-.58.4-.82.55-.06,0c-.27.19-.54.36-.82.53a3.24,3.24,0,0,1-.35.21c-.43.27-.86.53-1.31.78-.92.53-1.85,1-2.81,1.49q-.47.24-.93.45l-1,.45-.89.38q-.94.39-1.92.75c-.54.2-1.09.39-1.64.57l-.91.29c-.3.1-.6.18-.91.27l-.13,0-1.38.37a49.49,49.49,0,0,1-7.46,1.31l-.53,0-2.32.14-.72,0-1.29,0h0L64,104c-.43,0-.86,0-1.28,0l-1.15-.07c-1.43-.09-2.87-.26-4.32-.48A49.7,49.7,0,0,1,16,62.43c-.12-.69-.21-1.37-.29-2,0-.38-.09-.76-.13-1.14,0,0,0-.09,0-.13,0-.42-.08-.84-.11-1.26-.07-.85-.11-1.7-.13-2.56,0-.2,0-.41,0-.61s0-.34,0-.5v-.11a49.63,49.63,0,0,1,9.19-28.95C28,26.65,32.26,28.28,37.25,30c25.08,8.64,27.36,25.28,27.52,29.62.16-4.35,2.44-21,27.51-29.62,5.37-1.85,9.84-3.6,13.57-5.21A49.69,49.69,0,0,1,115.28,54Z"/><path class="cls-1" d="M105.85,24.79C122.29,17.65,124.28,13,124.28,13"/><path class="cls-1" d="M64.77,60.68a9.6,9.6,0,0,1,0-1.06A9.6,9.6,0,0,1,64.77,60.68Z"/><path class="cls-1" d="M5.25,13s2.06,4.8,19.22,12.12"/><path class="cls-1" d="M115.28,54v79H105.14c-8.08-5.69-18.66-18-26.72-29.37a1,1,0,0,1-.18-.63,1,1,0,0,1,.74-.91l.13,0c.31-.09.61-.17.91-.27l.91-.29c.55-.18,1.1-.37,1.64-.57s1.29-.49,1.92-.75l.89-.38,1-.45q.47-.21.93-.45c1-.46,1.89-1,2.81-1.49.45-.25.88-.51,1.31-.78a3.24,3.24,0,0,0,.35-.21c.28-.17.55-.34.82-.53l.06,0,.82-.55.58-.4.49-.35c.37-.26.74-.53,1.1-.81l.09-.07c.52-.4,1-.81,1.53-1.22l.26-.22c.4-.34.8-.69,1.18-1,.16-.13.31-.27.46-.41l.08-.08c.43-.39.85-.8,1.27-1.21a.34.34,0,0,1,.06-.06c.25-.26.51-.51.75-.77s.5-.52.73-.78l.1-.1c.16-.17.31-.33.45-.5a2.25,2.25,0,0,0,.21-.24c.27-.3.53-.6.78-.91q.18-.2.33-.39c.3-.36.58-.72.86-1.08.14-.17.27-.35.4-.52.37-.48.73-1,1.08-1.48s.69-1,1-1.52l.39-.6a.35.35,0,0,1,0-.08c.21-.34.41-.67.61-1s.27-.44.4-.67c.31-.55.62-1.11.92-1.68l.36-.73h0c.24-.46.46-.93.67-1.4l.21-.45c.19-.41.36-.81.53-1.22s.29-.7.42-1,.33-.85.48-1.27.31-.85.45-1.28.27-.85.4-1.29.19-.65.28-1,.18-.65.26-1,.21-.82.3-1.23c.06-.26.12-.51.17-.77q.15-.69.27-1.38l.09-.48c.07-.4.13-.8.19-1.2s.1-.68.14-1,.09-.69.12-1c.07-.67.13-1.35.18-2,0-.13,0-.25,0-.38,0-.57,0-1.14.07-1.72C115.28,54.77,115.28,54.39,115.28,54Z"/><path class="cls-1" d="M105.14,129.43h-25C15.29,109.89,15.2,57.72,15.28,54.18c0,.16,0,.33,0,.5s0,.41,0,.61c0,.86.06,1.71.13,2.56,0,.42.07.84.11,1.26,0,0,0,.09,0,.13,0,.38.08.76.13,1.14.08.68.17,1.36.29,2a49.7,49.7,0,0,0,41.27,40.95c1.45.22,2.89.39,4.32.48l1.15.07c.42,0,.85,0,1.28,0l1.28,0h0l1.29,0,.72,0c.78,0,1.56-.07,2.32-.14l.53,0a49.49,49.49,0,0,0,7.46-1.31l1.38-.37a1,1,0,0,0-.74.91,1,1,0,0,0,.18.63C86.48,115,97.06,123.74,105.14,129.43Z"/><path class="cls-1" d="M61.56,103.86c-1.43-.09-2.87-.26-4.32-.48A49.7,49.7,0,0,1,16,62.43c-.12-.69-.21-1.37-.29-2A50,50,0,0,0,61.56,103.86Z"/><path class="cls-1" d="M69.61,103.81l-2.32.14C68.07,103.93,68.85,103.88,69.61,103.81Z"/><polygon class="cls-2" points="133.28 132.51 133.28 139.87 16.27 139.87 16.28 131 31.28 129.43 116.28 129.43 133.28 132.51"/><path class="cls-2" d="M85.74,46a6.5,6.5,0,0,0-6.46,6.46A6.61,6.61,0,0,0,85.82,59a6.5,6.5,0,0,0,6.46-6.5,6.15,6.15,0,0,0-.17-1.43,5.18,5.18,0,0,1-6.33-5A0,0,0,0,0,85.74,46Z"/><path class="cls-2" d="M42.74,46a6.5,6.5,0,0,0-6.46,6.46A6.61,6.61,0,0,0,42.82,59a6.5,6.5,0,0,0,6.46-6.5,6.15,6.15,0,0,0-.17-1.43,5.18,5.18,0,0,1-6.33-5A0,0,0,0,0,42.74,46Z"/></g></g></svg>