<svg xmlns="http://www.w3.org/2000/svg" viewBox="0 0 876.95 139.87"><defs><style>.cls-1{fill:#102347;}.cls-2{fill:none;stroke:#286bee;stroke-linecap:square;stroke-miterlimit:10;stroke-width:8px;}.cls-3{fill:#286bee;}</style></defs><g id="Calque_2" data-name="Calque 2"><path class="cls-1" d="M277.82,156c2.35-.17,2.68-.84,2.68-3.35V69.58l-33.67,68.19H230.58l-32.51-68v82.77c0,2.68.17,3.18,2.68,3.35l14.58,1.34v9.05H169.76V157.2L180.31,156c2.35-.34,2.69-.84,2.69-3.35v-94c0-2.52-.34-3-2.69-3.36l-10.55-1.17V45h32.5l36.86,79.58L277.32,45h32.17v9l-11.23,1.34c-2.51.34-2.68.68-2.68,3.19v94.16c0,2.17.51,2.84,2.68,3.18l11.23,1.34v9.05H263.92V157.2Z" transform="translate(-14.23 -26.71)"/><path class="cls-1" d="M339.81,156c2.35-.34,2.68-.84,2.68-3.35v-94c0-2.52-.33-3-2.68-3.36l-10.55-1.17V45h84.1V72.59L402,71.92,399.62,59c-.33-1.67-1-2.18-2.85-2.18H357.9V99.06h44.74v12.07H357.9v43.22h42.56c1.84,0,2.35-.17,2.68-1.84l2.68-14.58h11.23v28.32H329.26V157.2Z" transform="translate(-14.23 -26.71)"/><path class="cls-1" d="M462.45,152.51c0,2.68.16,3,2.68,3.35l11.22,1.34v9.05H435.64V157.2L446.2,156c2.34-.34,2.68-.84,2.68-3.35V58.52c0-2.51-.34-3-2.68-3.35L435.64,54V44.78h32.84l59.64,100.69V58.52c0-2.51-.33-3-2.68-3.35L514.89,54V45h40.54v9l-11.22,1.34c-2.52.34-2.68.68-2.68,3.19V166.25H523.6L462.45,64.88Z" transform="translate(-14.23 -26.71)"/><path class="cls-1" d="M646.57,156.2l-13.91-34.69c-2.17-5.36-4.69-7-11.39-7H602.84v38c0,2.68.17,3,2.68,3.35l11.06,1.34v9.05H574.36V157.2L584.92,156c2.34-.34,2.68-.84,2.68-3.35v-94c0-2.52-.34-3-2.68-3.36l-10.56-1.17V45h51.27c30.16,0,37.86,16.75,37.86,32.84,0,17.92-9.72,27.81-23.29,32.67,5.2,2.51,6.87,5.69,9.39,12.23L661,152c1,2.68,2.68,3.51,5.19,3.85l10.22,1.51v8.88H633.33V157.2Zm.84-77.91c0-17.09-11.06-21.11-31.5-21.11H602.84v45.23h15.42C634.17,102.41,647.41,97.72,647.41,78.29Z" transform="translate(-14.23 -26.71)"/><path class="cls-1" d="M681.58,55.84,674,54l1.68-9h39.2v9L701.19,55.5,731.85,153,763.18,55.5,749.61,54l1.67-9h36.53v9l-7,1.85c-2,.5-3.52,1.17-4.19,3.18L742.07,166.25H721.29L685.61,58.69C684.94,56.68,683.59,56.34,681.58,55.84Z" transform="translate(-14.23 -26.71)"/><path class="cls-1" d="M864,155.69l-9-26.47H808.25l-8.88,26.47,13.57,1.51v9.05H774.4v-8.88l7.21-1.85c2.68-.67,3.51-1.17,4.18-3.18L822.65,45h19.44l37.53,107.56c.67,2,2,2.34,4,2.85l7.54,1.84v9.05H850.3V157.2ZM851.3,117,831.87,58,812.1,117Z" transform="translate(-14.23 -26.71)"/><path class="cls-2" d="M120.08,51.5c-3.73,1.61-8.2,3.36-13.57,5.21C81.44,65.35,79.16,82,79,86.33c-.16-4.34-2.44-21-27.52-29.62-5-1.72-9.21-3.35-12.78-4.88a50,50,0,0,1,81.38-.33Z" transform="translate(-14.23 -26.71)"/><path class="cls-2" d="M129.51,80.71c0,.39,0,.77,0,1.16,0,.58,0,1.15-.07,1.72,0,.13,0,.25,0,.38,0,.68-.11,1.36-.18,2,0,.35-.07.69-.12,1s-.09.69-.14,1-.12.8-.19,1.2l-.09.48q-.12.69-.27,1.38c0,.26-.11.51-.17.77s-.19.82-.3,1.23-.17.66-.26,1-.18.66-.28,1-.26.86-.4,1.29-.3.86-.45,1.28-.31.85-.48,1.27-.27.7-.42,1-.34.81-.53,1.22l-.21.45c-.22.47-.44.94-.67,1.4h0l-.36.73c-.3.57-.61,1.13-.92,1.68-.13.23-.26.45-.4.67s-.4.68-.61,1a.35.35,0,0,0,0,.08l-.39.6c-.33.51-.67,1-1,1.52s-.71,1-1.08,1.48c-.13.17-.26.35-.4.52-.28.36-.56.72-.86,1.08q-.15.19-.33.39c-.25.31-.51.61-.78.91a2.25,2.25,0,0,1-.21.24c-.14.17-.29.33-.45.5l-.1.1c-.23.26-.48.52-.73.78s-.5.51-.75.77l-.06.06-1.27,1.21-.08.08c-.15.14-.3.28-.46.41-.38.35-.78.7-1.18,1l-.26.22c-.5.41-1,.82-1.53,1.22l-.09.07c-.36.28-.73.55-1.1.81l-.49.35-.58.4-.82.55-.06,0c-.27.19-.54.36-.82.53a3.24,3.24,0,0,1-.35.21c-.43.27-.86.53-1.31.78-.92.53-1.85,1-2.81,1.49q-.47.24-.93.45l-1,.45-.89.38q-.94.39-1.92.75c-.54.2-1.09.39-1.64.57l-.91.29c-.3.1-.6.18-.91.27l-.13,0-1.38.37a49.49,49.49,0,0,1-7.46,1.31l-.53,0-2.32.14-.72,0-1.29,0h0l-1.28,0c-.43,0-.86,0-1.28-.05l-1.15-.07c-1.43-.09-2.87-.26-4.32-.48A49.7,49.7,0,0,1,30.2,89.14c-.12-.69-.21-1.37-.29-2-.05-.38-.09-.76-.13-1.14,0,0,0-.09,0-.13,0-.42-.08-.84-.11-1.26-.07-.85-.11-1.7-.13-2.56,0-.2,0-.41,0-.61s0-.34,0-.5v-.11A49.63,49.63,0,0,1,38.7,51.83c3.57,1.53,7.79,3.16,12.78,4.88C76.56,65.35,78.84,82,79,86.33c.16-4.35,2.44-21,27.51-29.62,5.37-1.85,9.84-3.6,13.57-5.21A49.69,49.69,0,0,1,129.51,80.71Z" transform="translate(-14.23 -26.71)"/><path class="cls-2" d="M120.08,51.5c16.44-7.14,18.43-11.79,18.43-11.79" transform="translate(-14.23 -26.71)"/><path class="cls-2" d="M79,87.39a9.6,9.6,0,0,1,0-1.06A9.6,9.6,0,0,1,79,87.39Z" transform="translate(-14.23 -26.71)"/><path class="cls-2" d="M19.48,39.71s2.06,4.8,19.22,12.12" transform="translate(-14.23 -26.71)"/><path class="cls-2" d="M129.51,80.71v79H119.37c-8.08-5.69-18.66-18-26.72-29.37a1,1,0,0,1-.18-.63,1,1,0,0,1,.74-.91l.13,0c.31-.09.61-.17.91-.27l.91-.29c.55-.18,1.1-.37,1.64-.57s1.29-.49,1.92-.75l.89-.38,1-.45q.47-.21.93-.45c1-.46,1.89-1,2.81-1.49.45-.25.88-.51,1.31-.78a3.24,3.24,0,0,0,.35-.21c.28-.17.55-.34.82-.53l.06,0,.82-.55.58-.4.49-.35c.37-.26.74-.53,1.1-.81l.09-.07c.52-.4,1-.81,1.53-1.22l.26-.22c.4-.34.8-.69,1.18-1,.16-.13.31-.27.46-.41l.08-.08c.43-.39.85-.8,1.27-1.21l.06-.06c.25-.26.51-.51.75-.77s.5-.52.73-.78l.1-.1c.16-.17.31-.33.45-.5a2.25,2.25,0,0,0,.21-.24c.27-.3.53-.6.78-.91q.18-.19.33-.39c.3-.36.58-.72.86-1.08.14-.17.27-.35.4-.52.37-.48.73-1,1.08-1.48s.69-1,1-1.52l.39-.6a.35.35,0,0,1,0-.08c.21-.34.41-.67.61-1s.27-.44.4-.67c.31-.55.62-1.11.92-1.68l.36-.73h0c.24-.46.46-.93.67-1.4l.21-.45c.19-.41.36-.81.53-1.22s.29-.7.42-1,.33-.85.48-1.27.31-.85.45-1.28.27-.85.4-1.29.19-.65.28-1,.18-.65.26-1,.21-.82.3-1.23.12-.51.17-.77q.15-.69.27-1.38l.09-.48c.07-.4.13-.8.19-1.2s.1-.68.14-1,.09-.69.12-1c.07-.67.13-1.35.18-2,0-.13,0-.25,0-.38,0-.57,0-1.14.07-1.72C129.51,81.48,129.51,81.1,129.51,80.71Z" transform="translate(-14.23 -26.71)"/><path class="cls-2" d="M119.37,156.14h-25C29.52,136.6,29.43,84.43,29.51,80.89c0,.16,0,.33,0,.5s0,.41,0,.61c0,.86.06,1.71.13,2.56,0,.42.07.84.11,1.26,0,0,0,.09,0,.13,0,.38.08.76.13,1.14.08.68.17,1.36.29,2a49.7,49.7,0,0,0,41.27,41c1.45.22,2.89.39,4.32.48l1.15.07c.42,0,.85,0,1.28.05l1.28,0h0l1.29,0,.72,0c.78,0,1.56-.07,2.32-.14l.53,0a49.49,49.49,0,0,0,7.46-1.31l1.38-.37a1,1,0,0,0-.74.91,1,1,0,0,0,.18.63C100.71,141.69,111.29,150.45,119.37,156.14Z" transform="translate(-14.23 -26.71)"/><path class="cls-2" d="M75.79,130.57c-1.43-.09-2.87-.26-4.32-.48A49.7,49.7,0,0,1,30.2,89.14c-.12-.69-.21-1.37-.29-2A50,50,0,0,0,75.79,130.57Z" transform="translate(-14.23 -26.71)"/><path class="cls-2" d="M83.84,130.52l-2.32.14C82.3,130.64,83.08,130.59,83.84,130.52Z" transform="translate(-14.23 -26.71)"/><path class="cls-2" d="M91.51,128.71" transform="translate(-14.23 -26.71)"/><path class="cls-2" d="M91.83,129.17" transform="translate(-14.23 -26.71)"/><polygon class="cls-3" points="133.28 132.51 133.28 139.87 16.27 139.87 16.28 131 31.28 129.43 116.28 129.43 133.28 132.51"/><path class="cls-3" d="M100,72.71a6.5,6.5,0,0,0-6.46,6.47,6.62,6.62,0,0,0,6.54,6.53,6.5,6.5,0,0,0,6.46-6.5,6.15,6.15,0,0,0-.17-1.43,5.18,5.18,0,0,1-6.33-5A0,0,0,0,0,100,72.71Z" transform="translate(-14.23 -26.71)"/><path class="cls-3" d="M57,72.71a6.5,6.5,0,0,0-6.46,6.47,6.62,6.62,0,0,0,6.54,6.53,6.5,6.5,0,0,0,6.46-6.5,6.15,6.15,0,0,0-.17-1.43,5.18,5.18,0,0,1-6.33-5A0,0,0,0,0,57,72.71Z" transform="translate(-14.23 -26.71)"/></g></svg>